<svg id="Capa_1" data-name="Capa 1" xmlns="http://www.w3.org/2000/svg" viewBox="0 0 1080 1080"><defs><style>.cls-1{fill:#f2f9fa;}.cls-1,.cls-20{stroke:#a0c4d5;}.cls-1,.cls-20,.cls-5{stroke-miterlimit:10;stroke-width:2px;}.cls-2{fill:#051433;}.cls-3{fill:#c75172;}.cls-20,.cls-4{fill:#daf1fc;}.cls-5{fill:#fcfdfc;stroke:#29abe2;}.cls-6{fill:#101934;}.cls-7{fill:#051534;}.cls-8{fill:#020918;}.cls-9{fill:#050609;}.cls-10{fill:#e8eaec;}.cls-11{fill:#94c3d7;}.cls-12{fill:#9accdc;}.cls-13{fill:#a6cbdc;}.cls-14{fill:#121b2e;}.cls-15{fill:#9fc5d2;}.cls-16{fill:#94cddb;}.cls-17{fill:#a9c4d5;}.cls-18{fill:#a0c4d5;}.cls-19{fill:#a1c5d3;}</style></defs><path class="cls-1" d="M738.91,305.76c19.62,27.5,33.88,58,49.77,87.65-19.51,15.33-44.6,20.76-64,37.09-5.3,4.46-21.42,6.26-32.12-.89-8.08-5.4-5.67-11.86-15.19-31.61-10.07-20.9-17.4-23.26-16.6-32.89.59-7.11,2.57-18.07,24.5-27.29C704.22,329.86,725,323,738.91,305.76Z"/><path class="cls-2" d="M738.91,305.76c-6.79-18.54-9.13-30.49-5.48-40.17,3.6-9.52,12.85-15.18,30.88-26.68,15.75-10,24.65-12.76,44.48-26.32,4.59-3.15,8.27-5.84,10.6-7.59,95.39,2.11,117,4.3,117,6,0,3.33-82.72-4.92-110.64,36.58a75.93,75.93,0,0,0-12.39,48.19,59.58,59.58,0,0,0,7,21.38c17,31.48,41.1,40.81,74.28,27.59,13.28-5.29,24.84-17.61,41.37-11.58v37.06c-26.34,13.86-52.8,27.49-79,41.64-35.06,18.95-47.32,15.8-68.32-18.44C762.36,369.71,747.5,339.51,738.91,305.76Z"/><path class="cls-3" d="M936,333.16c-10.9,5.5-21.91,10.81-32.69,16.54Q856.8,374.39,827,342.17C801.13,314,796.5,282,814.22,253.59c1.83-3,3.79-5.82,5.69-8.73A121.26,121.26,0,0,1,881.39,207q13.54.23,28,1,14,.76,27,2Z"/><path class="cls-4" d="M372.72,761c-14.1-41.63-28.08-83.31-42.33-124.9C317.76,599.27,329,582.87,368,581.83l31.72-.86c6.59.9,12.41,3.92,18.42,6.5,70.3,19.42,140.49,30,210.39-1.44,3.73-2.41,12.59,4.11,11.54-7.24-.4-4.27,3.32-7.9,8.82-7.25,3,14.08,14.58,9.83,23.48,10.69,27.74,2.67,38.89,18.54,30.13,44.86-15,45-30.56,89.86-45.89,134.77-2,27.28-26.52,20.84-42,28.06-22.1,2.48-44.41-.95-66.47,2.63-52-1.69-104.52,6.88-156.1-6.46C381.38,781,370.85,775.79,372.72,761Z"/><path class="cls-5" d="M648.9,571.54c-9.23,1.08,2.87,21.63-14.21,15.54-43.25,24.88-90.54,23-137.67,19.67-28.63-2-56.7-8.92-85-13.79-7.27-.76-11-5.09-12.29-12,.62-50.05,29.61-80.8,84.86-82.17,40.26-1,68.54-17.13,90.39-49,4.88-7.13,11.48-13.37,18.23-18.88,9-7.36,21.25-14.2,31.25-9.39,9.29,4.48-1.08,15.62-1.2,24-.29,19.09,6.22,36,13.81,52.92C647.54,521.72,658.32,545,648.9,571.54Z"/><path class="cls-6" d="M616.31,782.34c14.85-4,33.08-1.42,40.3-20.47,31,1.87,39.07,13,34.73,48.12-4.84,3-9.77,1.51-14.69.28-155.91-1.65-311.82-.2-467.73-.8-11.33-.05-22.94,2-33.94-2.69-3.4-18.06,11.46-15.88,20.62-16.63,29.86-2.44,59.87-.91,89.82-1,35.12-.16,70.48,2.27,104.38-10.23,53,5.62,106.21,2.9,159.31,4.66,22,4.89,44.29,1,66.42,2.19.12,0,1.58.56,2.44-.28C619.69,783.77,616.32,783.75,616.31,782.34Z"/><path class="cls-7" d="M389.8,778.88C379.67,794.31,365,799.27,347,799.12c-49-.42-97.92-.28-146.87,0-9.32,0-19.44-2.78-27.51,4.9-6.95,6.07-15.57,7.59-20.69,0-6.61-9.8-3.86-22.07-2-33.09,1.42-8.25,9.49-5.88,15.29-6.28,20-1.35,40.27,2.69,60.13-2.49L372.73,761C375.92,769.35,382.2,774.74,389.8,778.88Z"/><path class="cls-8" d="M146.5,832c-2.17-7.76-2.87-15.15,5-16.37,6.2-1,12.52-.58,18.79-.58q260.57.07,521.13.21c-9.19,22.26-25,15.63-38.41,15.69Q399.75,832.08,146.5,832Z"/><path class="cls-9" d="M225.43,762.15c-16.28,9.6-34.09,3.35-51.15,4.7-11.7.92-22.68-.54-23.2,16.8C150.58,800,157,806.2,172.66,804q239.13.13,478.25.42c10.21,0,21.28-3.32,30.52,4.4-5.11,5-11.6,3.3-17.58,3.3q-251.21.14-502.41,0c-5.25,0-10.62.63-15.51-2.14l-1.86-1.4c1.75-47.29,1.75-47.35,50.27-47.34C204.71,761.29,215.07,761.85,225.43,762.15Z"/><path class="cls-10" d="M145.93,810q254.6-.22,509.17-.49c8.78,0,17.56-.47,26.33-.72l9.92,1.18a9.25,9.25,0,0,1-.93,4.71l-544.65-.53C145.79,812.78,145.84,811.4,145.93,810Z"/><path class="cls-11" d="M412,593c38.81-3.58,75.58,12.14,114.59,11,37.08-1.12,73.06-4.6,108.07-16.84-18,23.3-45.27,20.27-69.95,23.76C512.36,618.25,461.61,610.09,412,593Z"/><path class="cls-12" d="M618.87,742.1q6.51-35.49,13-71l7.3,1.28c-3.71,23.57-3.86,47.71-12.26,70.55Z"/><path class="cls-13" d="M474.14,666.14c5,20,11.64,39.37,6.85,60.29C474.19,706.9,466.05,687.62,474.14,666.14Z"/><path class="cls-14" d="M616.31,782.34l18.55,1.76c-27.74,6.29-66.28,5.68-85.75-.56Z"/><path class="cls-15" d="M551.82,694.15c4.56,24.2,4.25,29.05-3,47.9C544.21,727.65,544.21,727.65,551.82,694.15Z"/><path class="cls-16" d="M394.88,701.09l20.85,39.2-7,3.68C400.27,731.68,391.88,719.37,394.88,701.09Z"/><path class="cls-17" d="M676.9,361.9c12.59,17.44,24,35.56,32.31,55.42l-6,3.43L671.1,365.2Z"/><path class="cls-18" d="M725.78,408.51,691.1,350.69C713.12,364,721.67,385,725.78,408.51Z"/><path class="cls-19" d="M731.28,342.1c13.59,12.32,19.8,28.79,25.76,45.4C741.84,376.08,736.89,358.9,731.28,342.1Z"/><circle class="cls-20" cx="340.5" cy="305.5" r="95.5"/><path class="cls-3" d="M320.38,338.41c0-3.7,2.19-6.89,6.56-8.4,2.18-.68,2.86-1.85,2.86-3.7V284.77c0-1.85-.68-3-2.86-3.7-4.37-1.51-6.56-4.7-6.56-8.4a9.06,9.06,0,0,1,9.42-9.25h22a9.06,9.06,0,0,1,9.42,9.25c0,3.7-2.19,7.06-6.56,8.4-2.18.68-2.86,1.85-2.86,3.7v41.54c0,1.85.68,3,2.86,3.7,4.37,1.34,6.56,4.7,6.56,8.4a9.06,9.06,0,0,1-9.42,9.25h-22A9.06,9.06,0,0,1,320.38,338.41Z"/></svg>