<svg id="Capa_1" data-name="Capa 1" xmlns="http://www.w3.org/2000/svg" viewBox="0 0 1080 1080"><defs><style>.cls-1{fill:#041432;}.cls-2{fill:#e1e2e7;}.cls-3{fill:#070c1f;}.cls-4{fill:#4e4f5e;}.cls-5{fill:#090c16;}.cls-6{fill:#d9f1fb;}.cls-7{fill:#9dc8d8;}.cls-8{fill:#a2cbdf;}.cls-9{fill:#a1cdd6;}.cls-10{fill:#c75274;}.cls-11{fill:#a05d72;}.cls-12{fill:#7bc0e0;}.cls-13,.cls-14{fill:#daf1fc;stroke-miterlimit:10;stroke-width:2px;}.cls-13{stroke:#a0c4d5;}.cls-14{stroke:#c75274;}</style></defs><path class="cls-1" d="M217.1,805.22v-5.29c30.94-26.5,70.45-35.66,106.48-51.44q118.67-52,238.05-102.38c15.32-6.49,30.65-13.06,38.49-30.16,5-10.91,16.54-15.62,27-20.29,61.08-27.29,120.39-58.7,184.44-79.08,2.41-.77,4-3.34,5.68-5.45a9.41,9.41,0,0,1,6.53-3.89c46.28,34.33,42.61,78.68-8.27,100.86-47.56,20.74-94.89,41.95-142.21,63.2-10.4,4.67-21.52,12.8-32.1,11.07-52.79-8.62-92.66,23.55-135.72,42.88-68.13,30.59-136.53,60.85-203.17,94.8-8.42,1.55-16.65,4.45-25.42,3.62-12.05,0-24.33-1.48-36.08.37C224.79,826.55,219.69,818.15,217.1,805.22Z"/><path class="cls-2" d="M820.59,514c1.58,3.7,5.66,8.25-1.73,9.94-72.33,16.56-135.06,56.4-203,83.6-2.41,1-6,2.05-6.66,3.92C593.5,654.89,550,657.06,516.43,672,417.27,716,317,757.47,217.1,799.93V789.34c30.14-26.16,69-34.73,104.15-50.37q117.22-52.12,236-100.89c16.32-6.68,28.81-16.67,36.25-32.75,5.65-8.42,13.91-13.32,23-17.05C672,565.62,725.63,538.65,781,515.61,794,510.21,806.91,502.86,820.59,514Z"/><path class="cls-3" d="M596.78,609.17c-3.12,12-7,22.23-20.4,27.88C456.46,687.44,336.82,738.49,217.1,789.34V773.45c1.93-1.8,3.83-3.62,5.69-5.49,51.41-25.16,104.79-45.86,157.26-68.6,64.63-28,129.73-54.92,194.21-83.16,6.71-2.84,9-10.94,15.9-13.58C594.5,602.65,596.32,605.22,596.78,609.17Z"/><path class="cls-4" d="M281.19,821.6a5.47,5.47,0,0,0-.55,4.8c-14.12,0-28.45-1.51-42.31.38-18.33,2.49-25.24-3.43-21.23-21.56,4.64,18.12,18.86,16.58,32.76,16.21C260.29,821.15,270.74,821.52,281.19,821.6Z"/><path class="cls-5" d="M819.29,502.83a10.64,10.64,0,0,1,2.17,4.57l-.87,6.58c-10.47,0-20.48.28-30.65,4.82-61.3,27.35-123,53.93-184.33,81.1-3.61,1.6-5.91,6.12-8.83,9.27l-3.65-4.62c-6-7.35-1.71-13,3-18.64,64.92-32.52,131-62.38,199-88.16C803.73,496.87,812.3,496.11,819.29,502.83Z"/><path class="cls-6" d="M598.21,587.25,582.37,546.4c-12.71-19.95-2.71-34.5,13.38-44.37C641,474.24,691,456.1,740,436.5c20-8,37.76,7.27,46.58,35q3.69,15.31,7.36,30.63C728.76,530.59,665.35,563.22,598.21,587.25Z"/><path class="cls-7" d="M674.24,488.84c12.37,11.43,18.21,26.49,25.17,40.93l-6.14,3.6Q680.55,513,667.84,492.64Z"/><path class="cls-8" d="M611.79,527.8c16.29,4.71,14.4,18.06,16.91,29.49C616.25,551.08,614.76,539.15,611.79,527.8Z"/><path class="cls-9" d="M747,514c-14-10.18-16-21.5-17.88-32.85C741.17,486.52,742,498.48,747,514Z"/><path class="cls-10" d="M819.29,502.83,794,502.12c-12.09-8.24-11.83-20.26-10.1-32.76,15.82-37.15,31.43-74.26,36.41-115,4.3-35.24-2.51-44.16-39-44.56-43.89-.49-87.79-.06-131.7,0-21.17-.5-42.32-.18-63.46-.15-44-.35-88-.65-132-.05-33,.46-41,10.1-35.86,42.37,8.36,52.8,21.85,103.11,61.91,142.62,28.48,28.09,64.13,38.82,101.23,47.5,12.75,12.39,23.14,25.69,16.79,45.19q-2.55,8.64-5.08,17.3L583.85,617c-12.3-15-31.08-8-46.53-12.88-71.64-22.75-110.42-73.86-132.23-142.09-13.78-43.11-16.09-88-21.34-132.4-1.3-11.06.9-24.19,10.65-31.5,33.51-25.15,68.75-48.28,109.72-58.66,23.89-6.06,49.12-3.91,71.47,9.08,26.55,15.43,52.62,16.05,79.8,1.41,36-19.39,72.87-16.75,108.54.32,22.7,10.86,43.69,25.24,66,37.09,17.66,9.4,24.27,22.77,23.68,42.87C851.8,389.83,841.62,447.47,819.29,502.83Z"/><path class="cls-11" d="M653,304c-24,11.63-47.93,11.59-71.92.07Z"/><path class="cls-12" d="M709.31,419.1A23.33,23.33,0,0,1,702,415a23.62,23.62,0,0,1-7-10,26.93,26.93,0,0,1-7,11c-3.18,2.94-8.8,6.55-31.65,7.84a243.54,243.54,0,0,1-26.21,0h0a19.65,19.65,0,0,1-6.61-.78c-11.76-3.51-16-17.17-16.53-19.1a36.19,36.19,0,0,1-8.44,8.75c-4.83,3.54-10.32,5.58-30.33,7.17-27.71,2.21-34.07-.37-37.23-1.92a41,41,0,0,1-12-9c-5,7.22-9.83,9.45-13.1,10.24-1.89.45-2.36.21-13.41-.05-8.75-.2-7,.07-12.49-.19-6.89-.33-9.3-.81-13,0a23.8,23.8,0,0,0-10,5l20.07,4.57a67.38,67.38,0,0,1,23.05,3.08A49.85,49.85,0,0,1,518,442a73.19,73.19,0,0,1,10-6,80,80,0,0,1,9.93-4.05c2.9-1,11.76-3.38,28.07-3.95,13.55-.47,20.33-.71,27,3a32.87,32.87,0,0,1,13,14c.49-1.37,4.73-12.79,15.5-15.51a19.6,19.6,0,0,1,8.4-.21h0A112.33,112.33,0,0,0,659,429c7.89-1.14,17.19-3.4,24,1a41.41,41.41,0,0,1,6,5,38.74,38.74,0,0,1,6,8,15.28,15.28,0,0,1,14.43-13.9h0A163.84,163.84,0,0,0,779,423l.12-3.9Z"/><circle class="cls-13" cx="274.06" cy="527.89" r="95.5"/><path class="cls-10" d="M234.09,565.85c0-2.75,1.28-5.66,5.65-8.4l11.3-6.94c1.46-1,2.26-1.94,2.26-2.92a2.52,2.52,0,0,0-1.77-2.42c-10.66-4.84-18.58-15-18.58-29.39,0-18.58,15.35-34.73,35.54-34.73,19.06,0,34.57,12.76,34.57,32.95,0,14.86-10.5,26.33-24.4,33.59L273,550.51c-1.62,1-2.11,1.77-2.11,2.9a2.76,2.76,0,0,0,2.91,2.75,28.81,28.81,0,0,0,4.36-.65l12.92-2.42c6.46-1.29,9-1.78,12.28-1.78a11.49,11.49,0,0,1,11.79,11.47,11.89,11.89,0,0,1-11.79,12H243A9,9,0,0,1,234.09,565.85ZM283,517.23a16.32,16.32,0,0,0-32.63,0,16.32,16.32,0,1,0,32.63,0Z"/><g id="WZy8cI.tif"><path class="cls-14" d="M738.22,645.16c4.13,4.12,7.76,7.62,11.25,11.25,4.87,5.08,3,12.7-3.64,14.84-3.66,1.17-6.76,0-9.42-2.66q-11.28-11.33-22.59-22.6c-.9-.89-1.81-1.78-2.78-2.59-4.27-3.61-4.89-9.15-1-13.16q14.61-15,29.57-29.6A8.87,8.87,0,0,1,752,613.31c-4.46,4.62-9.1,9.06-14,13.9a20.18,20.18,0,0,0,2,.25c8.53,0,17.07,0,25.61,0,14.45-.07,28.89-.24,43.34-.28,6.53,0,10.49,4.35,9.69,10.44-.57,4.33-4.43,7.47-9.38,7.53-4.31.06-8.62,0-12.93,0Z"/></g><g id="WZy8cI.tif-2" data-name="WZy8cI.tif"><path class="cls-14" d="M806,707.46c-4.12,4.12-7.75,7.62-11.24,11.25-4.87,5.07-3,12.69,3.63,14.83,3.66,1.18,6.77,0,9.43-2.65q11.26-11.32,22.59-22.6c.9-.89,1.81-1.78,2.77-2.6,4.28-3.6,4.9-9.15,1-13.15-9.74-10-19.63-19.83-29.57-29.61a8.87,8.87,0,0,0-12.41,12.68c4.46,4.61,9.1,9,14,13.89a18.68,18.68,0,0,1-2,.26c-8.54,0-17.08,0-25.61,0-14.45-.07-28.89-.24-43.34-.28-6.53,0-10.49,4.35-9.69,10.43.57,4.33,4.42,7.47,9.37,7.54,4.31,0,8.63,0,12.94,0Z"/></g></svg>