<svg id="Capa_1" data-name="Capa 1" xmlns="http://www.w3.org/2000/svg" viewBox="0 0 1080 1080"><defs><style>.cls-1{fill:#c75274;}.cls-2{fill:#d9f1fa;}.cls-3{fill:#031532;}.cls-4{fill:#090615;}.cls-5{fill:#d8dadf;}.cls-6{fill:#10131d;}.cls-7{fill:#dbd9de;}.cls-8{fill:#1f2633;}.cls-9{fill:#11121c;}.cls-10{fill:#030316;}.cls-11{fill:#cecbd4;}.cls-12{fill:#9d6879;}.cls-13{fill:#9cc5d2;}.cls-14{fill:#99c9de;}.cls-15{fill:#7bc0e0;}.cls-16,.cls-17{fill:#daf1fc;stroke-miterlimit:10;stroke-width:2px;}.cls-16{stroke:#c75274;}.cls-17{stroke:#a0c4d5;}</style></defs><path class="cls-1" d="M431.66,685.83l-67.92-1.39c-26.44-35.23-49.72-72-61.26-115.32-10-37.73-13.44-76.32-17-114.89-1.91-20.92,6.6-37.41,25.5-48.49,39.22-23,76.61-50,125.13-49.91,18.13,0,34.92,3.28,50.3,13.28,21.88,14.21,43.75,14.38,66.71,1.29,56-32,105.53-7.92,153.6,20.24C759,421.23,759,427,752.48,488.9c-6.8,64.2-21.31,124.73-60.68,177.3-9.09,4.11-15.66.46-21.11-6.79-8.92-20.36-7.92-40.4,2.14-60.08,24.49-39.36,41.08-81.57,45.29-128.12,3.09-34.24-1-39-34.64-39.52-45.77-.64-91.55.64-137.34-.47a176.15,176.15,0,0,0-57.64-.42c-37.87,1.49-75.78.38-113.68.6-55.23.31-58.89,5.11-48.42,60.18,9.29,48.86,26.94,93.07,66,126.25,22,18.7,46.09,32.4,76.12,32.15,31.63.19,63.87-8.64,94.41,6.61,5.72,14.06-5.57,14-13.53,15.26-11.18,1.7-22.61,1.11-33.9.66C486.59,671.36,458.13,672.17,431.66,685.83Z"/><path class="cls-2" d="M462.48,676.7c.34-9.62.91-19.24,1-28.87.32-50.31,7.06-58.05,48.47-62.1,40.89-4,81.68-4.22,122.66-2.89,18.34.59,29.75,16.52,45.35,22.24-10.42,22-5.34,45.72-5.24,68.89l-113.78,4Z"/><path class="cls-3" d="M692.52,669.47c15.23,21.41,10.43,45.41,6.4,68.12-2.22,12.52-14.42,18.45-28.6,18.71-66,1.17-132.06,3-198.1,4.34-6,.12-14.3.23-17.59-3.31-21.45-23.1-48.2-15.8-74.13-15-85.33,2.59-170.67,4.8-256,7.16V707.08c8.3-8.59,19.13-7.86,29.66-7.85,55.44.06,110.89-.5,166.29.28,36.93,6.53,73.94,8.56,110.94.39,5.66-4.52,11.75-8.11,19.13-9,63.74-4.88,127.49-2,190.75.08-10.76-1.83-23,5.32-31.09-6.74a8.76,8.76,0,0,1,3.11-7.18c19.08-8.85,39.44-2.08,59-5C679,671.28,685.6,669.11,692.52,669.47Z"/><path class="cls-4" d="M124.49,685.89l239.26-1.45c21.54-14.81,44.43-10.82,67.49-4.86,4.68,2.78,7.89,6.53,8,12.28-3.38,10-11.74,11.56-20.62,12.27-90.53-.26-181-3.87-271.58-2.42-7.89.12-16,.46-22.56-5.23Z"/><path class="cls-5" d="M124.49,696.48q126.14.25,252.26.53c14.88,0,29.76.5,44.65.76,3.83,1.53,9.19,1.07,10.67,5.85,1.29,4.14-2.05,5.65-5.74,6-33.41-.77-66.87,2.1-100.24-1.51-57.67.26-115.33.61-173,.7-9.53,0-19.06-1.12-28.6-1.73Z"/><path class="cls-6" d="M431.66,685.83c12.19-17.65,29-22.66,50.11-22,26.31.79,52.73-1.78,79.1-2.91,1.69-3.13,3.78-7,7-7.4,35.77-4,71.78-12.18,106.79,4.1l17.11,8.61a20.54,20.54,0,0,1,.72,3.27l-11.11,11.3c-3.26-2.84-7.41-3.54-11.34-4.8-22.31,1-45.33-6.25-66.72,5.74-25.24,3.13-50.59,1.75-75.84,1.26-30.54-.6-60.65,1.48-90.46,8Z"/><path class="cls-7" d="M437.05,691c12-11.43,25.89-16.07,42.87-15.75,41.22.78,82.46-.1,123.69-.3,24.51-3.87,49-3.41,73.59-.37l4.21,6.17-66.18.78c-20.56,11.59-43,5.65-64.68,6.88-14.92.86-29.93-.83-44.8,1.23-14.08,3.69-28.86-.9-42.89,3.5-4.68,3.69-10.83.21-15.67,3.17l-10.7,10.28c-1.86,2.31-3.42,2-4.71-.56l-10.38-8.27C426.54,695.33,434.36,699.12,437.05,691Z"/><path class="cls-8" d="M447.19,696.32c1.18-3.91,3.87-5.68,7.89-5.56,64.53-5.61,129.05-8.64,193.52.79-9.2,7.7-20.21,4.13-30.49,4.8-54.08,3.5-108.66-6.64-162.49,5.72C453.37,702.59,450,698.34,447.19,696.32Z"/><path class="cls-9" d="M648.6,691.55l-193.51-.79c14.11-10.38,30.64-1.92,45.58-5.86a747.41,747.41,0,0,1,109.86,0h54.94C658.8,693.44,653.19,690.26,648.6,691.55Z"/><path class="cls-10" d="M431.78,706a19.2,19.2,0,0,0,4.71.56C430.59,718,419.93,712.26,412,712c-28.65-1.12-57.68,5.17-86-3.84Z"/><path class="cls-11" d="M610.53,684.9H500.67c38-8.6,76.33-3.44,114.55-3.36Z"/><path class="cls-12" d="M550.92,421.81c-22.93,14.82-45.83,12.41-68.72-.38Z"/><path class="cls-11" d="M677.2,674.59l-73.59.36C628.12,670.91,652.64,668.8,677.2,674.59Z"/><path class="cls-13" d="M555.57,599.29c9.31,15.67,10.37,29.31,7.28,46.27C553,630.44,552.2,616.76,555.57,599.29Z"/><path class="cls-14" d="M613.5,606.92c11.46,13.55,9.69,23,5.25,34.9C608.07,631.83,612.2,621.64,613.5,606.92Z"/><path class="cls-15" d="M611.36,534a23.13,23.13,0,0,1-7.31-4.1,23.56,23.56,0,0,1-7-10,26.93,26.93,0,0,1-7,11c-3.18,2.94-8.8,6.55-31.65,7.84a243.1,243.1,0,0,1-26.21,0h0a19.89,19.89,0,0,1-6.61-.79c-11.76-3.51-16-17.17-16.53-19.1a36.2,36.2,0,0,1-8.44,8.76c-4.83,3.53-10.32,5.57-30.33,7.16-27.7,2.21-34.07-.37-37.23-1.92a41,41,0,0,1-12-9c-5,7.22-9.83,9.45-13.1,10.24-1.89.45-2.35.21-13.41,0-8.75-.2-7,.07-12.49-.19-6.89-.33-9.3-.81-13,0a23.87,23.87,0,0,0-10,5l20.07,4.57a67.38,67.38,0,0,1,23.05,3.08,49.85,49.85,0,0,1,17.88,10.35,73.19,73.19,0,0,1,10-6,81.78,81.78,0,0,1,9.93-4c2.9-1,11.76-3.38,28.07-4,13.55-.47,20.33-.7,27,3a32.92,32.92,0,0,1,13,14c.49-1.37,4.73-12.79,15.5-15.51a19.65,19.65,0,0,1,8.41-.21h0a112.33,112.33,0,0,0,29.09-.28c7.89-1.14,17.19-3.4,24,1a41.41,41.41,0,0,1,6,5,38.74,38.74,0,0,1,6,8,15.7,15.7,0,0,1,5-10,15.52,15.52,0,0,1,9.43-3.9h0a163.84,163.84,0,0,0,69.57-6.1l.12-3.9Z"/><g id="WZy8cI.tif"><path class="cls-16" d="M550.22,817.56c4.12-4.13,7.62-7.75,11.25-11.24,5.08-4.88,12.7-3,14.83,3.63,1.18,3.66,0,6.76-2.65,9.42q-11.32,11.28-22.6,22.6c-.89.89-1.78,1.8-2.59,2.77-3.61,4.27-9.16,4.9-13.16,1q-15-14.62-29.6-29.58a8.87,8.87,0,0,1,12.67-12.4c4.61,4.46,9.06,9.1,13.89,14a18.68,18.68,0,0,0,.26-2c0-8.54.05-17.08,0-25.62-.07-14.44-.24-28.89-.28-43.33,0-6.54,4.35-10.49,10.44-9.69,4.33.56,7.47,4.42,7.53,9.37,0,4.31,0,8.62,0,12.93Z"/></g><g id="WZy8cI.tif-2" data-name="WZy8cI.tif"><path class="cls-16" d="M612.52,749.74c4.11,4.12,7.61,7.75,11.25,11.24,5.07,4.88,12.69,3,14.83-3.63,1.18-3.66,0-6.76-2.66-9.42q-11.31-11.28-22.59-22.6c-.9-.89-1.78-1.81-2.6-2.77-3.61-4.27-9.15-4.9-13.16-1q-15,14.63-29.6,29.58a8.87,8.87,0,0,0,12.67,12.4c4.62-4.46,9.06-9.1,13.9-14a18.68,18.68,0,0,1,.26,2c0,8.54,0,17.08,0,25.62-.08,14.44-.24,28.89-.28,43.33,0,6.53,4.35,10.49,10.43,9.69,4.33-.57,7.47-4.42,7.54-9.37,0-4.31,0-8.62,0-12.94Z"/></g><g id="WZy8cI.tif-3" data-name="WZy8cI.tif"><path class="cls-16" d="M550.22,817.56c4.12-4.13,7.62-7.75,11.25-11.24,5.08-4.88,12.7-3,14.83,3.63,1.18,3.66,0,6.76-2.65,9.42q-11.32,11.28-22.6,22.6c-.89.89-1.78,1.8-2.59,2.77-3.61,4.27-9.16,4.9-13.16,1q-15-14.62-29.6-29.58a8.87,8.87,0,0,1,12.67-12.4c4.61,4.46,9.06,9.1,13.89,14a18.68,18.68,0,0,0,.26-2c0-8.54.05-17.08,0-25.62-.07-14.44-.24-28.89-.28-43.33,0-6.54,4.35-10.49,10.44-9.69,4.33.56,7.47,4.42,7.53,9.37,0,4.31,0,8.62,0,12.93Z"/></g><g id="WZy8cI.tif-4" data-name="WZy8cI.tif"><path class="cls-16" d="M612.52,749.74c4.11,4.12,7.61,7.75,11.25,11.24,5.07,4.88,12.69,3,14.83-3.63,1.18-3.66,0-6.76-2.66-9.42q-11.31-11.28-22.59-22.6c-.9-.89-1.78-1.81-2.6-2.77-3.61-4.27-9.15-4.9-13.16-1q-15,14.63-29.6,29.58a8.87,8.87,0,0,0,12.67,12.4c4.62-4.46,9.06-9.1,13.9-14a18.68,18.68,0,0,1,.26,2c0,8.54,0,17.08,0,25.62-.08,14.44-.24,28.89-.28,43.33,0,6.53,4.35,10.49,10.43,9.69,4.33-.57,7.47-4.42,7.54-9.37,0-4.31,0-8.62,0-12.94Z"/></g><circle class="cls-17" cx="205.4" cy="317.39" r="95.5"/><path class="cls-1" d="M172.51,363.84c0-2.73,1.51-5.45,5.15-7.11C204.88,344,217.58,334.19,217.58,323c0-5.29-3.32-9.83-10.13-9.83h-8.17c-5,0-9.38-3.93-9.38-8.92,0-4.84,3.78-8.32,8.93-8.78l2-.14c3.32-.16,6-2.58,6-5.76s-2.57-6-6.8-6H182.19a9.66,9.66,0,0,1-9.83-9.53,9.81,9.81,0,0,1,9.83-9.83h40.08a10.81,10.81,0,0,1,10.89,10.74,11.53,11.53,0,0,1-3.63,8.16l-7.71,7.72c-2.27,2.26-2.58,3.17-2.58,4.68,0,1.67.76,3,2.88,3.94,8.62,3.32,15.88,10.88,15.88,23,0,19.36-19.81,35.24-51.12,47.19a22.1,22.1,0,0,1-6.81,1.67C175.08,371.25,172.51,367.77,172.51,363.84Z"/></svg>