<svg id="Capa_1" data-name="Capa 1" xmlns="http://www.w3.org/2000/svg" viewBox="0 0 1080 1080"><defs><style>.cls-1{fill:#071531;}.cls-2{fill:#d4d7db;}.cls-3{fill:#c75273;}.cls-4{fill:#d8f1f9;}.cls-5{fill:#922342;}.cls-6{fill:#8f2c4b;}.cls-7{fill:#0a0f1b;}.cls-8{fill:#7c364a;}.cls-9{fill:#942243;}.cls-10{fill:#fbfcfb;}.cls-11{fill:#f8f8f8;}.cls-12{fill:#f7f9f9;}.cls-13{fill:#71bde1;}.cls-14{fill:#f8f9f9;}.cls-15{fill:#f7f4f6;}.cls-16{fill:#a5d0d8;}.cls-17{fill:#0d111c;}.cls-18{fill:#9dc5da;}.cls-19{fill:#a2cadb;}.cls-20{fill:#9fcde3;}.cls-21{fill:#a0cce5;}.cls-22{fill:#89395c;}.cls-23{fill:#f8faf9;}.cls-24{fill:#eff3f5;}.cls-25,.cls-26{fill:#daf1fc;stroke-miterlimit:10;stroke-width:2px;}.cls-25{stroke:#c75274;}.cls-26{stroke:#a0c4d5;}.cls-27{fill:#c75274;}</style></defs><path class="cls-1" d="M315.92,637.76,142.49,693.45V651.06c6.41-12.49,18.43-15.29,30.63-18.12,58.29-13.5,114.27-35,172.11-50.1,5-1.31,10-3.73,12.2-9.27,1.13-3.73,2.44-7.38,3.87-11,10.18-24.19,29.09-35,54.62-35.53,2.68-.08,5.37,0,8.05.16,13.53,7,32.85-6.17,43.16,12.25-1.32,13.59-13.44,14.38-22.46,18.18-40.29,17-40.34,16.84-36.95,59.19a20,20,0,0,1-1.31,7.63c-4.39,9.61-12.29,6.8-19.66,5.38-8.29-1.6-16.56-4.12-24.48,1.2C347.46,637.63,332.11,640.63,315.92,637.76Z"/><path class="cls-2" d="M364.87,576.17c6.44,16-8.42,10.88-13.75,12.47-65.46,19.47-131.15,38.17-196.74,57.2-4.12,1.2-7.93,3.45-11.89,5.22v-10.6c12.18-12.41,28.46-13.54,44.23-16,20.87-5.42,39.85-17.73,62.38-17.07,14.58-9.87,34.21-7.58,47.82-19.84C319.45,583,340,566.5,364.87,576.17Z"/><path class="cls-3" d="M315.92,637.76l43.88-13.21c21.09-1.16,30.5,21.79,49.92,24.11,18.8,13.67,40.27,21.17,62.45,27.08a65.29,65.29,0,0,1,7.32,1.7c8.67,2.47,17.64,3.45,26.45,5.24a138.4,138.4,0,0,0,64-.49c10.44-2.1,21.12-2.71,31.49-5.18,25.42-4.3,48.06-15.91,70.93-26.91,34.29-22.14,65.8-47.31,90.15-80.65,23.56-32.25,23.15-36.39-9.09-61.32-29.2-19.88-57.44-41.27-89.38-56.86-4.54-2-8.87-4.5-13.74-5.72-24.14-10.7-47.78-6-71.43,2-10.76,3.62-21.95,5.69-33.18,7.45a46.76,46.76,0,0,1-11.82.06,229.31,229.31,0,0,1-40.8-9.76c-21.48-7.39-42.79-8.38-64.08.41-8.1,2.59-16.24,5.11-23.37,10-25.74,17.37-54,31.24-75.9,54-33.57,17.54-34.56,20.58-16.89,52.46,3.33,6,7.48,11.7,6.11,19.18-6.67,5.7-14.21,9.15-23.17,8.89a7.73,7.73,0,0,1-6.26-2.93c-20.6-40.64-7.3-76.76,14.84-111.73,24.79-39.15,50.28-77.61,82.3-111.62,33.85-36,75-40.35,113.58-18.57,24.7,13.94,50,14.36,75.51,2.27,53.54-25.32,83.94-20.61,125,22.75,39.62,41.85,68.48,91.44,95.39,142,11.61,21.79,6.3,45.18-1.33,66.9C757.74,684.8,662.61,740.71,558.59,746c-40.8,2.08-81.67.15-119.58-14.13C389.27,713.16,346.47,682.83,315.92,637.76Z"/><path class="cls-4" d="M403,624.57c-12.67-52.75-12.2-53.56,40-74,8-3.14,15.83-6.76,23.74-10.16,7.3-12.56,21.38-11.17,32.49-15.9a249.45,249.45,0,0,0,37.17-12.14,53.2,53.2,0,0,1,11.6-1.2c15.7,0,30.11,3.79,42.43,14,11.05,11.72,13.8,27.05,18.17,41.7.76,5.51.16,10.78-3,15.52-6.47,17.59-16-13.21-26,2.28-7.88,12.19-26.69,11.11-40.4,16.57a43,43,0,0,1-23.16,2.6c-4.12-.68-10.19-4.36-12.12-.18-9.64,20.89-33.31,17.26-48.07,28.82-18.14-.93-32.07,13.37-49.84,13.9C399.25,639.89,404.31,631.79,403,624.57Z"/><path class="cls-5" d="M317.14,580c-5.59-7.66-11.55-15.08-16.73-23C283,530.3,293,511.77,327,507.49c23.12-1.94,44.34,12.49,67.77,7.81,5.93.94,11.9-.82,17.68-.29,5.44.5,10.52,1.84,11.69,5.24S422.31,528.39,417,532a63.37,63.37,0,0,0-52.2,35C350.24,576.23,335.54,584.93,317.14,580Z"/><path class="cls-6" d="M403,624.57a26.58,26.58,0,0,1,5.9,20.93c.5,2.64-.43,4.49-3,5.39-22,2.78-30.33-18.2-46-26.34C374.2,611.21,388.58,625.48,403,624.57Z"/><path class="cls-7" d="M502.06,529.62c-10.52,7.74-23.09,8.78-35.36,10.8-13.62-10.24-30.39,1.68-44.33-6.31,1.75-10.78,9.85-14.25,19-16.57C461.92,519.87,483.91,515.12,502.06,529.62Z"/><path class="cls-1" d="M364.87,576.17c0-3-.05-6.09-.07-9.15l-47.66,13L292,588.67h0q-5.71,2-12,3.79c-7.49,2.15-14.63,3.8-21.33,5.08a904.82,904.82,0,0,0-94.39,27.33q-11.39,4-22.33,8.14c.16,2.49.33,5,.49,7.46L268,604l-.12-.12A119.06,119.06,0,0,0,297,593.31h0Z"/><path class="cls-8" d="M439.39,522.9Q434.88,525,430,527q-6.69,2.78-13,5c1.44-7.94.21-10.52-1.21-11.39-4.27-2.6-13.91,7.6-19.17,4.55a4.05,4.05,0,0,1-1.7-2.13c1.28-9.73,8.79-12.57,16.62-15.11a30.87,30.87,0,0,1,12-.17C431.13,510.36,439.29,512.43,439.39,522.9Z"/><path class="cls-9" d="M600.88,583.76q.58-8.49,1.18-17c5.17-13.61-1-30.08,10.58-42.1,12.8-9.94,28.81-11.36,43.43-16.51a38.72,38.72,0,0,1,11.81-.69c30.41,12.94,59.77,5.8,88.94-4.77,42.16,27.62,42.08,31,11.08,72.14-25.1,33.34-56.56,58.89-91.13,81.28-2.43-1.06-5.5-1.69-6.94-3.68-17-23.61-37.57-22.12-59.91-8.72-12.27.25-20-9.37-30.08-13.86-8.23-5.37-20.08-8.94-11.93-22.86C576.9,596.45,589.48,591,600.88,583.76Z"/><path class="cls-10" d="M439.39,522.9l-16.07-10.32c-12.41-24.32-11.47-48.61.17-72.88,39.51-21.06,75.23.8,112.08,9.89,8.8,23.4,13.56,46.6-3.49,68.68-8,9-19.89,7.91-30,11.35C481,528.68,459.66,530.88,439.39,522.9Z"/><path class="cls-10" d="M656.57,513.13c-11.83,11.67-29.45,8.74-42.65,17-8,4.39-16,6.16-24.14.18-14.08-6-27.89-12.94-43.9-11.64-10.31-22.74-8-45.76-1.49-68.87,37-8.47,72.7-31.52,112.38-10C667.31,464.22,668.8,488.69,656.57,513.13Z"/><path class="cls-11" d="M756.82,502.71c-25.71,24.41-54.77,27.45-89.68,9.37-8.29-22.33-9.45-44.6.68-66.74C700.43,459.91,728.69,481.21,756.82,502.71Z"/><path class="cls-12" d="M412.72,512.52,394.92,523C370.84,524.2,347,524.19,327,507.5c8.41-23,32.38-27.57,48.83-41,8.09-6.62,17.94-11.08,27-16.51,9.6-5.26,13.94,1.44,14.07,8.53C417.27,476.56,422.64,495.22,412.72,512.52Z"/><path class="cls-13" d="M600.88,583.76c-2.13,17.26-18.2,18.5-29.28,25.47-14.11,12.18-30,20.88-48.41,24.47-32.83,1.1-32.82,1.1-39.7,33.13-1.26,5.85-1.9,12.07-8.52,14.85l-2.09.05-2-.58c-12.11-15.24-7.25-35.31-14.77-51.86-5.77-17.31,10.56-10.56,15.41-11.86,16.51-4.44,30.55-9,26.36-32.28,26.71,27.92,48.65-.94,72-1.55,18.43-.47,3.81-17,9.89-24.24C588.36,566.5,585.2,583.38,600.88,583.76Z"/><path class="cls-14" d="M582.29,623.91c11.22,2,17.21,12,26.39,17.11,12,15.63,11.39,29.67-5.22,41.71-9.49,7.23-20.88,5-31.56,6.37-34.35,3.27-36.4.41-33.38-46.71C545.53,618.31,562.77,618.41,582.29,623.91Z"/><path class="cls-15" d="M603.46,682.73c7.82-13.14,4.53-27.67,5.22-41.71,29.46-27.22,52.88-22,68.08,15.11C653.13,667.21,630.69,681.56,603.46,682.73Z"/><path class="cls-16" d="M502.42,688.63c29.74-.92,29.74-.92,33.1-48.15,2.92-2.91,5.81-2.94,8.68.06.25,6.9,1.6,14,.53,20.67-3.54,22,6.64,29.79,27.18,27.89C548.7,695.26,525.54,694.39,502.42,688.63Z"/><path class="cls-16" d="M412.72,512.52c0-14.86.15-29.72-.06-44.58-.11-7.54,1.87-16.59-9.81-18,5.3-6.61,13.34-7.71,20.64-10.27q-.08,36.44-.16,72.88Z"/><path class="cls-16" d="M667.82,445.34q-.33,33.38-.68,66.74l-10.58,1q.11-36.7.2-73.41Z"/><path class="cls-16" d="M544.39,449.76q.75,34.42,1.49,68.87l-13.8-.36,3.48-68.68Z"/><path class="cls-17" d="M589.78,530.27l24.14-.18c-5.87,11.61,4.56,28.49-11.85,36.69Q595.92,548.53,589.78,530.27Z"/><path class="cls-18" d="M471.49,605.84c-9-10.53-12.29-23-12.43-36.52C469.66,579.3,472.38,592,471.49,605.84Z"/><path class="cls-19" d="M552.23,568.13c-9-8.59-10.62-19-8.69-30.34C552.34,546.44,554.35,556.77,552.23,568.13Z"/><path class="cls-20" d="M438.3,608.38c-13.54-11.56-7.87-23.67-11.83-33.09C437.49,582.74,439.26,592.77,438.3,608.38Z"/><path class="cls-21" d="M516,553c10.41,12.89,13.2,22.54,13,38.51C518.22,579.43,516.09,569.54,516,553Z"/><path class="cls-22" d="M544.2,640.54l-8.68-.07q-6-6-12-12c14.37-10.54,31.36-14.53,48.08-19.2-7.36,12.85,9.12,8.33,10.68,14.68C567.16,623.87,552.44,624.78,544.2,640.54Z"/><path class="cls-16" d="M484,656.5c-1,8.85-4.69,25.44-10,25.5-5.1.06-9.26-15.2-10-25.5-.54-7.49.44-16.47,4-17.5,1.8-.52,3,1.38,6,1,4.05-.5,5.22-4.32,7-4C483.72,636.49,485.16,646.15,484,656.5Z"/><path class="cls-23" d="M475,681.68c.42-6.1,1.13-12.19,1.2-18.3.44-35.65,12.35-44.49,47.34-35,10,.17,14.93,5.62,16,15.18.28,4.41.32,8.82.33,13.23.06,36.41-.21,36.63-37.4,31.8C493.12,686.91,482.66,689.77,475,681.68Z"/><path class="cls-24" d="M456.1,629.29c26.26,11.21,10.64,34.35,14.77,51.86-24.46-4.1-48.09-10-65-30.26l3-5.39C420.75,628.82,436.45,623.29,456.1,629.29Z"/><g id="WZy8cI.tif"><path class="cls-25" d="M248.37,756.65c4.11-4.13,7.61-7.75,11.25-11.24,5.07-4.88,12.69-3,14.83,3.63,1.18,3.66,0,6.76-2.66,9.42q-11.31,11.28-22.59,22.6c-.9.89-1.78,1.8-2.6,2.77-3.61,4.27-9.15,4.89-13.16,1q-15-14.61-29.6-29.57a8.87,8.87,0,0,1,12.67-12.4c4.62,4.46,9.06,9.1,13.9,14a18.68,18.68,0,0,0,.26-2c0-8.54,0-17.08,0-25.62-.08-14.44-.24-28.89-.28-43.33,0-6.54,4.35-10.5,10.43-9.7,4.33.57,7.47,4.43,7.53,9.38.06,4.31,0,8.62,0,12.93Z"/></g><g id="WZy8cI.tif-2" data-name="WZy8cI.tif"><path class="cls-25" d="M310.66,688.83c4.12,4.12,7.62,7.75,11.25,11.24,5.08,4.87,12.7,3,14.83-3.63,1.18-3.66,0-6.77-2.65-9.43q-11.32-11.26-22.6-22.59c-.89-.9-1.78-1.81-2.59-2.77-3.61-4.27-9.15-4.9-13.16-1q-15,14.61-29.6,29.58a8.87,8.87,0,0,0,12.67,12.4c4.62-4.46,9.06-9.1,13.89-14a18.68,18.68,0,0,1,.26,2c0,8.54.05,17.08,0,25.62-.07,14.44-.24,28.89-.28,43.33,0,6.53,4.35,10.49,10.44,9.69,4.33-.57,7.47-4.42,7.53-9.37.06-4.31,0-8.62,0-12.94Z"/></g><circle class="cls-26" cx="217.77" cy="355.08" r="95.5"/><path class="cls-27" d="M219.59,393.12v-8.4a3.32,3.32,0,0,0-3.4-3.39H182.41A13.28,13.28,0,0,1,169,367.91c0-3.55,1.78-6.46,4.2-9.69l41.53-53.66a14.93,14.93,0,0,1,12.29-6c7.92,0,13.41,6,13.41,13.9v46.87a3.32,3.32,0,0,0,3.4,3.39h6.46a9.3,9.3,0,1,1,0,18.59h-6.46a3.32,3.32,0,0,0-3.4,3.39v8.4a10.42,10.42,0,1,1-20.84,0Zm-3.4-30.38a3.32,3.32,0,0,0,3.4-3.39v-29.1a2.83,2.83,0,0,0-2.75-2.74,3.37,3.37,0,0,0-2.75,1.45L193.4,356.44c-1.13,1.45-1.78,2.42-1.78,3.39a2.94,2.94,0,0,0,3.08,2.91Z"/></svg>