<svg id="Capa_1" data-name="Capa 1" xmlns="http://www.w3.org/2000/svg" viewBox="0 0 1080 1080"><defs><style>.cls-1{fill:#c75274;}.cls-2{fill:#c75374;}.cls-3{fill:#11142c;}.cls-4{fill:#071634;}.cls-5{fill:#bd587c;}.cls-6{fill:#eee8ea;}.cls-7{fill:#eff0f4;}.cls-8{fill:#f9f9f9;}.cls-9{fill:#efebee;}.cls-10{fill:#f4eff1;}.cls-11{fill:#ece7ea;}.cls-12{fill:#061331;}.cls-13{fill:#c55273;}.cls-14{fill:#c5c7cc;}.cls-15{fill:#f4f3f6;}.cls-16{fill:#942243;}.cls-17{fill:#f1eded;}.cls-18{fill:#eee8e9;}.cls-19{fill:#c15375;}.cls-20{fill:#d8eff9;}.cls-21{fill:#a0cad9;}.cls-22{fill:#731c34;}.cls-23{fill:#751a37;}.cls-24{fill:#b1d3e0;}.cls-25{fill:none;stroke:#bebdc9;stroke-width:7px;}.cls-25,.cls-28,.cls-29{stroke-miterlimit:10;}.cls-26{fill:#f6f6f7;}.cls-27{fill:#a8d1d9;}.cls-28,.cls-29{fill:#daf1fc;stroke-width:2px;}.cls-28{stroke:#c75274;}.cls-29{stroke:#a0c4d5;}</style></defs><path class="cls-1" d="M736.18,654.75c-6.15,40.15-32.95,65.4-65.47,83.8-70.79,40.05-145.39,45.29-222.17,18-13.1-4.65-26.34-8.86-39.52-13.27-10.36-7.13-3.51-12.54,1.91-17.89,7.2-7.12,15.15-13.48,21.3-21.65a65.48,65.48,0,0,1,8.11-8.62,15.76,15.76,0,0,1,11.53-2.49A58.5,58.5,0,0,1,468,673c18-14,38.58-12.55,44-12,1.37,4.57,11.9,37.61,44.94,50.84,29.68,11.89,65.36,2.92,88.86-22.88,19.61-2.81,31-18.49,45.51-29.26,10.82-6,14.12-17,19.14-27.17,5.28-10.67,9.54-23.1,24.6-24.15C755.46,623.34,734.17,639.32,736.18,654.75Z"/><path class="cls-2" d="M650.72,357.71l28.08,51.17c2.15,8.79-2.79,13-10.09,15.8-11.83,1.67-16.49-8.26-23.41-14.49a335.88,335.88,0,0,0-30.54-32.48c-14.43-13.53-30.92-19.52-50.54-13.61-14.59,4.4-29.33,5.35-44,1.23-27-7.57-50.1-4.54-65.83,22-3,5.12-8.2,9.06-12.82,13.1-16.78,14.09-18.95,38.16-35.71,52.3A18.64,18.64,0,0,1,394.33,457c-8-1.87-13.4-5.24-8.13-14.54,17.08-46.23,38.47-89.7,78.17-121.32,13.84-11,28.67-15.4,46.39-8.9a80.46,80.46,0,0,0,51.87.84c16.29-5.13,30.88-3.75,46,2.17C626.06,326,637.57,342.65,650.72,357.71Z"/><path class="cls-3" d="M447.7,697a2.39,2.39,0,0,0-2.94,2.28c-14.94,7.84-25.89,20.65-38.68,31.17-4.18,4.41-8.26,8.92-13.54,12.1-20,11.34-40.13,22.48-54.38,41.36-5,3.56-9.64,7.56-14.35,11.5-8.06,2.42-15.89,8.74-24.52,1.39-5-29.34,22.87-35.84,37.48-50.19,9.66-9.49,20.81-17.36,27.84-29.42l6.33-7.39c-.63-18.07,16.23-20.77,26-29.67,9.14-8.14,19.09-15.22,29.1-22.23,32.5-20.5,58.39-51.23,96.79-62.69,16.94,4.85,38.94-10.36,51.37,12.76-.29,9-5.21,15.81-13.65,15.81-21.84,0-36.05,13.67-51.36,25.79C488.22,664.74,468.55,681.63,447.7,697Z"/><path class="cls-4" d="M364.61,717.19c-.88,16.42-7.05,26.95-22.75,36.66-16.32,10.08-32.42,24.47-40.22,44.28,4.84,12.68-7.57,15.73-12.74,22.82q-2.94,7-5.9,14l-30,21.63c-4,3.4-7.71,7.34-12.14,10.1-12.56,7.83-25.56,9.19-35.17-3.79-10.15-13.71-6.78-26.43,7-36.35Z"/><path class="cls-5" d="M402.5,686.49c-8.47,10.54-20,16.88-31.56,23.3-36.9-43.79-45.4-93.1-29.32-147.55,12.11-41,23.57-82.17,44.58-119.82,1,5.35,3.85,9,9.39,10.14,9.89,11.09,2.75,21.52-1.68,31.71-3.45,7.92-10.9,14.05-10.59,23.68-8.15,28.47-21.73,55.37-24.52,85.36,4.15,26.35,9.53,52.13,32.44,69.77C398.73,669.09,403.45,676.44,402.5,686.49Z"/><path class="cls-2" d="M665.93,421.58l12.86-12.7c30.83,54.69,49.15,114.24,64.7,174.41,6,23.18,6.58,48.83-7.31,71.46-7.52-13.53,14.37-30.86-5.54-42.77-5.51-2.76-7.77-7.49-8.13-13.36-6.67-30.34-13-60.8-29.32-87.95-1.26-22.77-15.15-40.55-24-60.31C664,441.23,658,432.17,665.93,421.58Z"/><path class="cls-4" d="M273.94,830.52l13.09-13c10-6.83,16.64-17.88,28.4-22.47,3.89,1,6.36,3.34,7,7.4-18.55,15.64-35.72,33.13-58.3,43.34C257.24,834.15,264.68,831.75,273.94,830.52Z"/><path class="cls-2" d="M650.72,357.71c-16.6-11.64-28.6-27.83-42.14-42.5C629.42,322.65,642.46,337.81,650.72,357.71Z"/><path class="cls-4" d="M322.47,802.42l-5.22-4a5.14,5.14,0,0,1,4.47-4.82L369,755q-.5,6.5-1,13a216.23,216.23,0,0,1-32.1,26.17C331.33,797.21,326.83,800,322.47,802.42Z"/><path class="cls-6" d="M730.37,597q.14,7.49.28,15c-6,21.45-14.5,41.49-32,56.4-11.8-6.15-23-13-29.21-25.58C672.12,627,681.57,614.18,688,600c4.61-6.19,10.83-9.77,18.24-11.47C716.19,585.85,724.29,588.56,730.37,597Z"/><path class="cls-7" d="M672.51,643.5c16.08.55,25.38,8.22,26.14,24.87-13.56,13.2-28.2,24.62-47.18,29q-.3-13.76-.59-27.51C647.49,652.33,651.4,640.86,672.51,643.5Z"/><path class="cls-8" d="M433.72,394.14c23.55-33.12,50.61-56.49,95.18-37.74,6.59,2.77,15.79,1.26,23.31-.41,48.2-10.67,77.22,3.35,99.11,48.66,3,18.23-8.51,22.81-23,24.53-20.72,3.8-37.09-12.46-58.84-11.17-18.41,1.08-37.23-4.35-56.68.36-13.67,3.31-26.34-2-30.91-17.85-2.27-2.47-2.67-5.7-3.43-8.78.53,4.74,3.67,8.57,4.6,13.24-1.48,19.24-13.33,25.08-30.66,23.92C430.64,425.62,426.55,412.89,433.72,394.14Z"/><path class="cls-9" d="M433.72,394.14c3.19,12.65,4.93,26.49,22.44,27.45-2.1,32.91-15.56,46.83-44.81,46.36-8.63-5-12.43-12.25-10.29-22.25C409.59,427,418.71,408.71,433.72,394.14Z"/><path class="cls-10" d="M623.4,421.62c12.28-.78,22.19-5.44,27.92-17l14.61,16.92,12.47,24.52c2.38,10-1.74,16.89-10.2,21.8C638.25,468,624.43,453.68,623.4,421.62Z"/><path class="cls-11" d="M401.06,445.7q6,9.27,12.08,18.53c11.82,13.44,7.81,26.39-2.84,37.46-9.79,10.19-21.7,15.26-34.86,4.39,1.28-19.89,13.8-35.55,20.15-53.52Z"/><path class="cls-12" d="M572.64,606.74c-11.1-4.58-22.07-.47-32.92,1-7.48,1-13.76,2.14-16.09-7.16-5.3-3.59-6.12-8.88-5.64-14.69,6.37-23.37,29-30,44.89-43.66,26.15-17,45.42-43.21,74.82-55.95,29.42-2.43,38.46,3.22,50.11,31.14-1.42,12.13-8.52,20.65-17.64,28-24.6,19.91-50.6,37.93-75.94,56.84C587.7,607.19,581.12,611.52,572.64,606.74Z"/><path class="cls-13" d="M523.85,585.13q-.11,7.73-.22,15.46c-32.05,21.44-60.4,48.27-95.36,65.48-14.51,2-20.82-9.61-29.35-17.6-11.19-10.11-19-21.6-15.14-37.72,10.91-32.83,41-39.55,68.27-50.06,15.41-4.28,31.15-3.92,46.47-1.08C512,562.11,522.71,569.39,523.85,585.13Z"/><path class="cls-14" d="M572.64,606.74c37.28-26.83,75.71-52.17,108.68-84.53,12.15,7.84,6.77,17.42,2.72,26.89-5.11,8.85-13.16,14-22.32,17.78-14.58,2.56-23,13.65-32.33,23.51-16.88,15.17-32,32.73-54.14,40.88-15.09,7-30.9,12.24-45.56,20.22-6.83,3.72-13.93,8.21-21.51,1.23l-5.31-8.24c16.4-13.43,31.08-29.68,55.62-27.89C562.94,616.92,567.91,610.2,572.64,606.74Z"/><path class="cls-15" d="M407.3,643.52c10.78,4,12.95,16,21,22.54-5.77,10.38-15.26,16-25.77,20.43L385.58,672C374.76,647.41,379.86,640.72,407.3,643.52Z"/><path class="cls-16" d="M677.58,548.07c-2.83-9.22,11-16,3.75-25.86-6-24.55-21.26-32.81-45.23-26.05-13.28,4.1-21.89-3.56-29.57-12.37-8.73-10-18.51-17.91-37.1-23.81,11.78,36.26,32.83,71.89-14.31,92.65-19.41,9.22-35.69,4.44-49.33-11.27-14.33-16.49-15.74-34.09-5.22-53.37,3.46-6.36,12.13-14.23,5.13-21-8.61-8.37-15.94,2-22.54,6.54-24.42,16.89-36.92,39.41-29.63,69.79,2.33,9.74,4.09,18.9-3.54,27.1-19.67,14.35-46.66,18.72-58.92,43.17-18.12,5.22-29.51-6.61-41.69-16.45-.95-33.1,8.7-63.16,26.06-91,27.6-.41,36.32-17.82,37.7-41.85,15.05-1.66,24.45-10.85,27.61-24.63,2.21-9.61,6.63-15.11,15.41-18,13.78-.72,21-9.6,26.09-21v-.1c17.43,10.87,34.42,12.57,50.71-2.29a65.53,65.53,0,0,1,6.13-4.48c17.54,27.48,54-2.18,72.39,23.83,2,2.79,7.86,2.81,11.93,4.12,5.88,3.66,13,3.85,14.35,14.59,1.86,15.18,12.11,25.91,28.74,28.07,14.93,10.86,22.94,27,31.93,42.3,28.54,23.82,28.94,57.58,32,90.42-9.4-1.13-18.66-.81-27.67,2.47C690.1,584.4,683.18,566.55,677.58,548.07Z"/><path class="cls-17" d="M349.38,597.1c17.78-4.36,30.05,5.24,41.69,16.45.43,12.69,4.38,23.47,16.23,30-15.64,3.1-26.43,9.9-21.72,28.51C361.53,652.84,349.28,628,349.38,597.1Z"/><path class="cls-18" d="M698.42,506.58c-22.93-4.83-31.53-20.47-31.93-42.3l11.91-18.19C686.18,465.89,707.32,481.26,698.42,506.58Z"/><path class="cls-19" d="M508.18,652.72c18.2-16.21,39.94-24.88,63.47-29.7,1.55.8,3,1.78,4.58,2.5,11.54,5.33,13.66,26.47,29.56,21.8,18.73-5.49,37.48-12.82,50.66-29.56,10.49-13.33,23-24.55,42-14.11-14.51,9.47-8.14,32.54-26,39.85-12,4.81-15.45,16.69-21.62,26.32q-30,2.48-61.61,4C549.92,675.8,512.11,676.41,476,676a100,100,0,0,0,14-10c2.56-2.2,4-3.66,7-6A78.73,78.73,0,0,1,508.18,652.72Z"/><path class="cls-20" d="M698.47,603.65C669,612.11,651.74,638.3,626.39,653c-30.9,17.93-51,7.72-54.74-30q26.61-18.93,53.2-37.88c10.07-8.68,20.56-16.87,30.24-26l22.49-11.05c21.67,10.64,31.45,27.09,25.12,51.41Z"/><path class="cls-21" d="M539,393.24c-2.33-9.95-3.08-20.69,1.39-35.29,3.51,10.59-.35,23.59-1.38,35.18Z"/><path class="cls-22" d="M450,570.38c-17.67-57-7.79-89.69,35.95-115,10.31-6,23.52-13.84,33.87-2.72,8.69,9.35,3.12,21.18-2.86,31.69-23.51,41.3-10.1,63.21,38.58,63.65q5.46-4.5,10.75.2l-42.43,37C502.05,566.08,476.24,567.1,450,570.38Z"/><path class="cls-23" d="M566.28,548.18l-10.75-.2c21.66-15,25.19-32.87,12.27-56.52-7.41-13.59-21.52-33.1-5.89-44.75,12.77-9.52,27.9,8.63,41,16.52,13.57,8.21,18.51,25.58,33.24,32.92A376.23,376.23,0,0,1,566.28,548.18Z"/><path class="cls-24" d="M644.44,624.11c-12.42-5.46-16-13.4-17.79-27C638.43,604.26,643.94,610.94,644.44,624.11Z"/><line class="cls-25" x1="213" y1="869.5" x2="547.5" y2="614.5"/><path class="cls-4" d="M390,739l13.41-11.46q12.1-10.47,24.9-20.87A1097.18,1097.18,0,0,1,548,622a45.58,45.58,0,0,0,11-1,46.66,46.66,0,0,0,13-5c23.93-13.21,34-21,34-21,37.51-29,56.27-43.53,69-58,1.65-1.87,6.76-7.8,8-7s-2.6,9.17-3,10c-7.28,15.19-19.55,22.32-38,37-3.59,2.86-6.12,5-8.15,6.73-6,5.17-9.69,8.38-11.85,10.27a168.78,168.78,0,0,1-22,16c-6.84,4.29-14.42,9-25,13-8.87,3.32-13.3,5-18,5a21.68,21.68,0,0,0-7,1,25.33,25.33,0,0,0-6,3c-7.93,4.87-6.69,3.82-10,6-9.81,6.45-22.8,17-24,18-5.16,3-42.56,25.46-68,47-5.57,4.72-11.9,15-24.75,26.89-7.19,6.63-12.16,9.89-33.22,26-9,6.85-16.28,12.48-21,16.16q-.5-6-1-12Z"/><path class="cls-26" d="M652.47,697.33c-41.75,23.18-88.59,25.88-134.18,28.38,0,0-42,4.46-54.72-11.06A16,16,0,0,1,461,710c-2.36-7.31,2.16-14.57,3.88-17.07A69.66,69.66,0,0,1,480,676c5.08-4.09,11-8.83,20-11,12.74-3.07,29.51-.49,33,7,.56,1.2,1.4,3.85,3,4,1.86.17,3.53-3.15,4-4,7.15-12.81,52.9-20,59.38-10.61.45.64,1.85,3,3.49,2.88s2.57-2.74,3-3.68c3.56-7.24,26.42-10.87,42.24-.18A36.71,36.71,0,0,1,659,671.94C662.58,681.89,659.2,690.05,652.47,697.33Z"/><path class="cls-27" d="M539.77,672.42c-.84,8.71-1.45,18-1.69,27.89-.21,8.43-.13,16.47.16,24.07A297.81,297.81,0,0,0,535,683q-.81-5.38-1.78-10.54c.88,2,1.94,3.41,3.13,3.26h0C537.15,675.61,538.29,674.9,539.77,672.42Z"/><path class="cls-27" d="M605.9,660.59c.17,8.75.65,18.07,1.55,27.9.77,8.4,1.78,16.37,2.94,23.89a296.41,296.41,0,0,0-8-40.73q-1.43-5.25-3-10.26c1.1,1.84,2.32,3.16,3.49,2.88h0C603.67,664.06,604.71,663.22,605.9,660.59Z"/><path class="cls-24" d="M616.63,644.53c-8.71-6.09-11.21-14.95-12.48-30.11C612.41,622.39,616.28,629.84,616.63,644.53Z"/><path class="cls-24" d="M664,565.49c10.3,2.64,15.74,10,22.26,23.8C675.73,584.73,669.5,579.12,664,565.49Z"/><g id="WZy8cI.tif"><path class="cls-28" d="M395.81,809.79c4.11,4.13,7.61,7.75,11.25,11.24,5.07,4.88,12.69,3,14.83-3.63,1.18-3.66,0-6.76-2.66-9.42q-11.31-11.28-22.59-22.6c-.9-.89-1.78-1.8-2.6-2.77-3.61-4.27-9.15-4.9-13.16-1q-15,14.61-29.6,29.57A8.87,8.87,0,0,0,364,823.6c4.62-4.46,9.06-9.1,13.9-14a18.08,18.08,0,0,1,.25,2c0,8.54,0,17.08,0,25.62-.08,14.44-.25,28.89-.28,43.33,0,6.54,4.35,10.49,10.43,9.7,4.33-.57,7.47-4.43,7.53-9.38.06-4.31,0-8.62,0-12.93Z"/></g><path class="cls-28" d="M526.84,863.42c8.43-13.63,9.4-27.42,1.9-41.45a37.17,37.17,0,0,0-20.15-17.46,39,39,0,0,0-26.77-.43A13.59,13.59,0,0,0,476,791.74a52.26,52.26,0,0,1,56.39,12.43,51.49,51.49,0,0,1,14.9,34.14c.67,13.17-3.27,25-11.41,35.63,3.06,0,6,0,8.85,0a9,9,0,0,1,1.94.21,5.58,5.58,0,0,1,4.24,5.5,5.43,5.43,0,0,1-4.91,5.23,23.77,23.77,0,0,1-2.39.15H521.86c-2.23,0-4.18-.63-5.38-2.65a5,5,0,0,1-.77-2.33c-.05-8.44-.08-16.89,0-25.33a5.33,5.33,0,0,1,5.42-5.06,5.62,5.62,0,0,1,5.49,5.39c0,2.66,0,5.32,0,8A3,3,0,0,0,526.84,863.42Z"/><path class="cls-28" d="M507.85,877.72c-.13,5,1.36,9.24,5.46,12.3-14.55,6.3-39,5.61-56.38-12.43a52.65,52.65,0,0,1-3.57-69.27l-1-.05c-2.87,0-5.75,0-8.62-.18a5.27,5.27,0,0,1-4.83-5,5.56,5.56,0,0,1,3.95-5.63,9.58,9.58,0,0,1,2.27-.25q11.52,0,23,.13c3.71,0,5.93,2.3,5.93,6q0,11.82,0,23.62a5.57,5.57,0,0,1-4.91,5.62,5.47,5.47,0,0,1-5.87-4,8.59,8.59,0,0,1-.23-2.15c0-2.66,0-5.32,0-8-2.45,1.62-6.62,12.5-7.15,18.23a40.77,40.77,0,0,0,2.83,19.52C465.26,872,484.42,885.32,507.85,877.72Z"/><circle class="cls-29" cx="282.19" cy="359.75" r="95.5"/><path class="cls-1" d="M277.29,328.44q-2.07,7-4.59,19,20.42,1.11,31,8.39t10.6,19.78a27,27,0,0,1-4.19,14.8,28.56,28.56,0,0,1-12.27,10.37,44.23,44.23,0,0,1-19,3.79q-14.72,0-23.66-5.69t-8.94-15.36c0-3.48.81-6.19,2.45-8.15a8.48,8.48,0,0,1,6.88-2.92,7.47,7.47,0,0,1,5.39,1.82c1.26,1.21,2.32,3.3,3.16,6.25q2.69,9.66,16.3,9.65a13.53,13.53,0,0,0,9.66-3.56,11.56,11.56,0,0,0,3.8-8.78q0-13.94-29.6-14.88c-4.22-.1-7.26-.79-9.1-2.06a6.58,6.58,0,0,1-2.77-5.85,18,18,0,0,1,.47-4l1.74-7.6q1-4.59,3.17-14.08h-.32a7.88,7.88,0,0,1-5.06-1.51,5,5,0,0,1-1.9-4.19q0-7.76,7.6-10.13,7.13-2.22,25.64-2.22,13.29,0,19.31.4a58.6,58.6,0,0,1,9.33,1.19,9.26,9.26,0,0,1,4.44,2.13,5.74,5.74,0,0,1,1.26,4q0,5.38-2.14,7.68t-7.2,2.29c-1.69,0-5-.1-9.81-.32q-13.29-.47-15-.47Q279.34,328.28,277.29,328.44Z"/></svg>